# xmcd CD database file
#
# Track frame offsets:
#	150
#	14896
#	29528
#	44252
#	57476
#	70820
#	84767
#	100029
#	114943
#	127469
#	139052
#	153195
#	166894
#	180750
#	193948
#	207512
#	221244
#	234050
#	247949
#
# Disc length: 3471 seconds
#
# Revision: 0
# Processed by: cddbd v1.5.1PL0 Copyright (c) Steve Scherf et al.
# Submitted via: CDex 1.51
#
DISCID=070d8d13
DTITLE=Billie Holiday - Great Divas
DYEAR=1900
DGENRE=Blues
TTITLE0=Eeny Meeny Miney Moo
TTITLE1=If You Were Mine
TTITLE2=These 'n That 'n Those
TTITLE3=You Let Me Down
TTITLE4=Spreadin' Rythm Around
TTITLE5=Life Begins When You're In Love
TTITLE6=It's Like Reaching For The Moon
TTITLE7=These Foolish Things
TTITLE8=Your Mother's Son In Love
TTITLE9=Riffin' The Scotch
TTITLE10=I Whished On The Moon
TTITLE11=What A Little Moonlight Can Do
TTITLE12=Miss Brown To You
TTITLE13=A Sunbonnet Blue And Yellow Straw Hat
TTITLE14=What A Night, What A Moon, What A Girl
TTITLE15=I'm Painting The Town Red
TTITLE16=It's Too Hot For Words
TTITLE17=Twenty-Four Hours A Day
TTITLE18=Yankee-Doodle Never Went To Town
EXTD=
EXTT0=
EXTT1=
EXTT2=
EXTT3=
EXTT4=
EXTT5=
EXTT6=
EXTT7=
EXTT8=
EXTT9=
EXTT10=
EXTT11=
EXTT12=
EXTT13=
EXTT14=
EXTT15=
EXTT16=
EXTT17=
EXTT18=
PLAYORDER=
